<?xml version="1.0" encoding="utf-8"?>
<svg version="1.1" xmlns:xlink="http://www.w3.org/1999/xlink" width="12px" height="12px" xmlns="http://www.w3.org/2000/svg">
  <g transform="matrix(1 0 0 1 -348 -69 )">
    <path d="M 9.09375 10.8515625  C 9.18509615384615 10.7526041666667  9.23076923076923 10.6354166666667  9.23076923076923 10.5  C 9.23076923076923 10.3645833333333  9.18509615384615 10.2473958333333  9.09375 10.1484375  C 9.00240384615385 10.0494791666667  8.89423076923077 10  8.76923076923077 10  C 8.64423076923077 10  8.53605769230769 10.0494791666667  8.44471153846154 10.1484375  C 8.35336538461539 10.2473958333333  8.30769230769231 10.3645833333333  8.30769230769231 10.5  C 8.30769230769231 10.6354166666667  8.35336538461539 10.7526041666667  8.44471153846154 10.8515625  C 8.53605769230769 10.9505208333333  8.64423076923077 11  8.76923076923077 11  C 8.89423076923077 11  9.00240384615385 10.9505208333333  9.09375 10.8515625  Z M 10.9399038461538 10.8515625  C 11.03125 10.7526041666667  11.0769230769231 10.6354166666667  11.0769230769231 10.5  C 11.0769230769231 10.3645833333333  11.03125 10.2473958333333  10.9399038461538 10.1484375  C 10.8485576923077 10.0494791666667  10.7403846153846 10  10.6153846153846 10  C 10.4903846153846 10  10.3822115384615 10.0494791666667  10.2908653846154 10.1484375  C 10.1995192307692 10.2473958333333  10.1538461538462 10.3645833333333  10.1538461538462 10.5  C 10.1538461538462 10.6354166666667  10.1995192307692 10.7526041666667  10.2908653846154 10.8515625  C 10.3822115384615 10.9505208333333  10.4903846153846 11  10.6153846153846 11  C 10.7403846153846 11  10.8485576923077 10.9505208333333  10.9399038461538 10.8515625  Z M 11.7980769230769 8.21875  C 11.9326923076923 8.36458333333333  12 8.54166666666667  12 8.75  L 12 11.25  C 12 11.4583333333333  11.9326923076923 11.6354166666667  11.7980769230769 11.78125  C 11.6634615384615 11.9270833333333  11.5 12  11.3076923076923 12  L 0.692307692307692 12  C 0.5 12  0.336538461538462 11.9270833333333  0.201923076923077 11.78125  C 0.0673076923076923 11.6354166666667  0 11.4583333333333  0 11.25  L 0 8.75  C 0 8.54166666666667  0.0673076923076923 8.36458333333333  0.201923076923077 8.21875  C 0.336538461538462 8.07291666666667  0.5 8  0.692307692307692 8  L 4.04567307692308 8  L 5.01923076923077 9.0625  C 5.29807692307692 9.35416666666667  5.625 9.5  6 9.5  C 6.375 9.5  6.70192307692308 9.35416666666667  6.98076923076923 9.0625  L 7.96153846153846 8  L 11.3076923076923 8  C 11.5 8  11.6634615384615 8.07291666666667  11.7980769230769 8.21875  Z M 9.23076923076923 4  C 9.43269230769231 4  9.57451923076923 4.1015625  9.65625 4.3046875  C 9.73798076923077 4.51822916666667  9.70432692307692 4.70052083333333  9.55528846153846 4.8515625  L 6.32451923076923 8.3515625  C 6.23798076923077 8.45052083333333  6.12980769230769 8.5  6 8.5  C 5.87019230769231 8.5  5.76201923076923 8.45052083333333  5.67548076923077 8.3515625  L 2.44471153846154 4.8515625  C 2.29567307692308 4.70052083333333  2.26201923076923 4.51822916666667  2.34375 4.3046875  C 2.42548076923077 4.1015625  2.56730769230769 4  2.76923076923077 4  L 4.61538461538462 4  L 4.61538461538462 0.5  C 4.61538461538462 0.364583333333332  4.66105769230769 0.247395833333332  4.75240384615385 0.1484375  C 4.84375 0.0494791666666674  4.95192307692308 0  5.07692307692308 0  L 6.92307692307692 0  C 7.04807692307692 0  7.15625 0.0494791666666674  7.24759615384615 0.1484375  C 7.33894230769231 0.247395833333332  7.38461538461539 0.364583333333332  7.38461538461539 0.5  L 7.38461538461539 4  L 9.23076923076923 4  Z " fill-rule="nonzero" fill="#ffffff" stroke="none" transform="matrix(1 0 0 1 348 69 )" />
  </g>
</svg>